<svg xmlns="http://www.w3.org/2000/svg" version="1.1" xmlns:xlink="http://www.w3.org/1999/xlink" xmlns:svgjs="http://svgjs.dev/svgjs" width="2000" height="368" viewBox="0 0 2000 368"><g transform="matrix(1,0,0,1,-1.2121212121212466,-1.1208050337119175)"><svg viewBox="0 0 396 73" data-background-color="#61777f" preserveAspectRatio="xMidYMid meet" height="368" width="2000" xmlns="http://www.w3.org/2000/svg" xmlns:xlink="http://www.w3.org/1999/xlink"><g id="tight-bounds" transform="matrix(1,0,0,1,0.2400000000000091,0.2223336072308939)"><svg viewBox="0 0 395.52 72.55533278553818" height="72.55533278553818" width="395.52"><g><svg viewBox="0 0 395.52 72.55533278553818" height="72.55533278553818" width="395.52"><g><svg viewBox="0 0 395.52 72.55533278553818" height="72.55533278553818" width="395.52"><g id="textblocktransform"><svg viewBox="0 0 395.52 72.55533278553818" height="72.55533278553818" width="395.52" id="textblock"><g><svg viewBox="0 0 395.52 72.55533278553818" height="72.55533278553818" width="395.52"><g transform="matrix(1,0,0,1,0,0)"><svg width="395.52" viewBox="2.45 -34.25 243.38000000000002 44.65" height="72.55533278553818" data-palette-color="#000000"><path d="M24.6-25.6L24.6-7.5Q24.6-4.65 23.9-2.98 23.2-1.3 21.98-0.65 20.75 0 18.75 0L18.75 0Q15.8 0 14.48-1.58 13.15-3.15 13.1-7.15L13.1-7.15 13-25.6 8.75-25.6Q5.6-25.6 4.03-26.6 2.45-27.6 2.45-30.15L2.45-30.15Q2.45-31.7 3.08-32.6 3.7-33.5 4.95-33.88 6.2-34.25 8.3-34.25L8.3-34.25 29.7-34.25Q32.5-34.25 33.75-33.25 35-32.25 35-29.8L35-29.8Q35-28.15 34.27-27.23 33.55-26.3 32.35-25.95 31.15-25.6 29.25-25.6L29.25-25.6 24.6-25.6ZM40.6 0.3L40.6 0.3Q36.65 0.3 34.05-2.93 31.45-6.15 31.45-11.75L31.45-11.75Q31.45-17.45 34.02-20.83 36.6-24.2 40.6-24.2L40.6-24.2Q44.65-24.2 48.1-21.35L48.1-21.35Q49.45-23.85 52.45-23.85L52.45-23.85Q55.15-23.85 56.65-22.68 58.15-21.5 58.15-18.35L58.15-18.35 58.15-5.35Q58.15-2.35 56.9-1.18 55.65 0 52.5 0L52.5 0Q49.2 0 48.15-1.85L48.15-1.85Q44.95 0.3 40.6 0.3ZM47.4-7.2L47.4-16.55Q46.55-18 45.2-18L45.2-18Q43.9-18 43.1-16.1 42.3-14.2 42.3-11.75L42.3-11.75Q42.3-9.45 43.05-7.65 43.8-5.85 45.15-5.85L45.15-5.85Q46.55-5.85 47.4-7.2L47.4-7.2ZM73.84-28.7L73.84-7.55Q73.84-3.5 72.5-1.75 71.15 0 68.34 0L68.34 0Q65.55 0 64.25-1.58 62.95-3.15 62.95-7.15L62.95-7.15 62.84-28.25Q62.84-29.55 63.12-30.55 63.4-31.55 63.87-32.25 64.34-32.95 65.05-33.4 65.75-33.85 66.57-34.05 67.39-34.25 68.34-34.25L68.34-34.25Q71.09-34.25 72.47-33.15 73.84-32.05 73.84-28.7L73.84-28.7ZM91.74-7.1L91.74-7.1 89.94-7.1Q89.94-4.5 88.44-2.25 86.94 0 84.44 0L84.44 0Q81.64 0 80.32-1.58 78.99-3.15 78.99-7.15L78.99-7.15 78.99-27.7Q78.99-29.85 79.69-31.18 80.39-32.5 81.52-33.05 82.64-33.6 84.44-33.7L84.44-33.7Q87.54-33.7 88.59-31.63 89.64-29.55 89.64-24.45L89.64-24.45Q89.64-20.5 89.19-17.5L89.19-17.5Q89.54-16.4 91.44-16.4L91.44-16.4Q92.64-16.4 93.07-16.93 93.49-17.45 93.49-19.05L93.49-19.05Q93.49-21.4 94.72-22.45 95.94-23.5 98.89-23.5L98.89-23.5Q101.99-23.5 103.07-22.38 104.14-21.25 104.14-18.3L104.14-18.3Q104.14-15.2 102.29-13.5 100.44-11.8 98.14-11.8L98.14-11.8Q100.49-11.8 102.32-10.38 104.14-8.95 104.14-6.1L104.14-6.1Q104.14-2.3 103.12-1.15 102.09 0 98.89 0L98.89 0Q95.94 0 94.72-1.07 93.49-2.15 93.49-4.45L93.49-4.45Q93.49-5.6 93.29-6.18 93.09-6.75 92.77-6.93 92.44-7.1 91.74-7.1ZM110.59-10.7L110.59-10.7 110.59-16.6Q109.34-16.65 108.59-17.03 107.84-17.4 107.52-18 107.19-18.6 107.19-19.5L107.19-19.5Q107.19-22.35 110.64-22.6L110.64-22.6 110.64-27.25Q110.64-29.15 113.39-30.68 116.14-32.2 118.84-32.2L118.84-32.2Q120.49-32.2 120.99-31.25 121.49-30.3 121.49-28.4L121.49-28.4 121.54-22.65 122.89-22.65Q125.64-22.65 126.67-21.93 127.69-21.2 127.69-19.3L127.69-19.3Q127.69-18.5 127.39-17.95 127.09-17.4 126.42-17.1 125.74-16.8 124.79-16.68 123.84-16.55 122.44-16.55L122.44-16.55 121.54-16.55 121.54-11.05Q121.54-10.25 121.62-9.73 121.69-9.2 121.84-8.9 121.99-8.6 122.27-8.5 122.54-8.4 122.94-8.4L122.94-8.4Q123.54-8.4 123.94-8.83 124.34-9.25 124.57-9.78 124.79-10.3 125.17-10.73 125.54-11.15 126.04-11.15L126.04-11.15Q127.19-11.15 127.82-10.6 128.44-10.05 128.44-9.25L128.44-9.25Q128.44-7.9 127.92-6.35 127.39-4.8 126.39-3.35 125.39-1.9 123.62-0.95 121.84 0 119.64 0L119.64 0Q114.69 0 112.64-2.5 110.59-5 110.59-10.7ZM143.89-15.4L143.89-5.35Q143.89-2.35 142.64-1.18 141.39 0 138.19 0L138.19 0Q135.24 0 134.19-1.38 133.14-2.75 133.14-5.9L133.14-5.9 133.14-18.2Q133.14-19.9 133.74-21.18 134.34-22.45 135.49-23.15 136.64-23.85 138.19-23.85L138.19-23.85Q141.99-23.85 143.19-21.65L143.19-21.65Q146.09-23.85 148.79-23.85L148.79-23.85Q154.04-23.85 154.04-18.85L154.04-18.85Q154.04-16.85 152.89-15.6 151.74-14.35 149.89-14.35L149.89-14.35Q148.79-14.35 148.11-14.8 147.44-15.25 146.86-15.7 146.29-16.15 145.54-16.15L145.54-16.15Q144.44-16.15 143.89-15.4L143.89-15.4ZM171.89-11.85L171.89-11.85Q171.89-14.45 171.24-16.43 170.59-18.4 169.34-18.4L169.34-18.4Q168.49-18.4 167.84-17.4 167.19-16.4 166.89-14.95 166.59-13.5 166.59-11.85L166.59-11.85Q166.59-9.3 167.29-7.38 167.99-5.45 169.29-5.45 170.59-5.45 171.24-7.35 171.89-9.25 171.89-11.85ZM169.29 0.35L169.29 0.35Q165.39 0.35 162.26-1.05 159.14-2.45 157.26-5.25 155.39-8.05 155.39-11.8L155.39-11.8Q155.39-17.5 159.29-20.85 163.19-24.2 169.29-24.2 175.39-24.2 179.24-20.85 183.09-17.5 183.09-11.8L183.09-11.8Q183.09-6.15 179.16-2.9 175.24 0.35 169.29 0.35ZM203.43-11.85L203.43-11.85Q203.43-14.45 202.78-16.43 202.13-18.4 200.88-18.4L200.88-18.4Q200.03-18.4 199.38-17.4 198.73-16.4 198.43-14.95 198.13-13.5 198.13-11.85L198.13-11.85Q198.13-9.3 198.83-7.38 199.53-5.45 200.83-5.45 202.13-5.45 202.78-7.35 203.43-9.25 203.43-11.85ZM200.83 0.35L200.83 0.35Q196.93 0.35 193.81-1.05 190.68-2.45 188.81-5.25 186.93-8.05 186.93-11.8L186.93-11.8Q186.93-17.5 190.83-20.85 194.73-24.2 200.83-24.2 206.93-24.2 210.78-20.85 214.63-17.5 214.63-11.8L214.63-11.8Q214.63-6.15 210.71-2.9 206.78 0.35 200.83 0.35ZM229.88-1.4L229.88 2.9Q229.88 6.95 228.53 8.68 227.18 10.4 224.38 10.4L224.38 10.4Q221.58 10.4 220.28 8.83 218.98 7.25 218.98 3.25L218.98 3.25 218.88-17.85Q218.88-20.95 220.38-22.4 221.88-23.85 224.38-23.85L224.38-23.85Q226.33-23.85 227.53-23.38 228.73-22.9 229.33-21.5L229.33-21.5Q232.78-24.2 236.73-24.2L236.73-24.2Q240.73-24.2 243.28-20.85 245.83-17.5 245.83-11.75L245.83-11.75Q245.83-6.15 243.23-2.93 240.63 0.3 236.68 0.3L236.68 0.3Q232.88 0.3 229.88-1.4L229.88-1.4ZM229.88-16.55L229.88-7.25Q230.73-5.85 232.13-5.85L232.13-5.85Q233.48-5.85 234.23-7.65 234.98-9.45 234.98-11.75L234.98-11.75Q234.98-14.2 234.18-16.1 233.38-18 232.08-18L232.08-18Q230.73-18 229.88-16.55L229.88-16.55Z" opacity="1" transform="matrix(1,0,0,1,0,0)" fill="#000000" class="wordmark-text-0" data-fill-palette-color="primary" id="text-0"></path></svg></g></svg></g></svg></g></svg></g><g></g></svg></g><defs></defs></svg><rect width="395.52" height="72.55533278553818" fill="none" stroke="none" visibility="hidden"></rect></g></svg></g></svg>