<svg xmlns="http://www.w3.org/2000/svg" version="1.1" xmlns:xlink="http://www.w3.org/1999/xlink" xmlns:svgjs="http://svgjs.dev/svgjs" width="128" height="128" viewBox="0 0 128 128"><g transform="matrix(0.8046875,0,0,0.8046875,12.44092805005215,9.912021169354837)"><svg viewBox="0 0 147 155" data-background-color="#61777f" preserveAspectRatio="xMidYMid meet" height="134" width="128" xmlns="http://www.w3.org/2000/svg" xmlns:xlink="http://www.w3.org/1999/xlink"><g id="tight-bounds" transform="matrix(1,0,0,1,0.08430656934304182,0.25)"><svg viewBox="0 0 146.8313868613139 154.5" height="154.5" width="146.8313868613139"><g><svg viewBox="0 0 146.8313868613139 154.5" height="154.5" width="146.8313868613139"><g><svg viewBox="0 0 146.8313868613139 154.5" height="154.5" width="146.8313868613139"><g id="textblocktransform"><svg viewBox="0 0 146.8313868613139 154.5" height="154.5" width="146.8313868613139" id="textblock"><g><svg viewBox="0 0 146.8313868613139 154.5" height="154.5" width="146.8313868613139"><g transform="matrix(1,0,0,1,0,0)"><svg width="146.8313868613139" viewBox="2.45 -34.25 32.55 34.25" height="154.5" data-palette-color="#000000"><path d="M24.6-25.6L24.6-7.5Q24.6-4.65 23.9-2.98 23.2-1.3 21.98-0.65 20.75 0 18.75 0L18.75 0Q15.8 0 14.48-1.58 13.15-3.15 13.1-7.15L13.1-7.15 13-25.6 8.75-25.6Q5.6-25.6 4.03-26.6 2.45-27.6 2.45-30.15L2.45-30.15Q2.45-31.7 3.08-32.6 3.7-33.5 4.95-33.88 6.2-34.25 8.3-34.25L8.3-34.25 29.7-34.25Q32.5-34.25 33.75-33.25 35-32.25 35-29.8L35-29.8Q35-28.15 34.27-27.23 33.55-26.3 32.35-25.95 31.15-25.6 29.25-25.6L29.25-25.6 24.6-25.6Z" opacity="1" transform="matrix(1,0,0,1,0,0)" fill="#ffffff" class="wordmark-text-0" data-fill-palette-color="primary" id="text-0"></path></svg></g></svg></g></svg></g></svg></g><g></g></svg></g><defs></defs></svg><rect width="146.8313868613139" height="154.5" fill="none" stroke="none" visibility="hidden"></rect></g></svg></g></svg>